<?xml version="1.0" encoding="UTF-8"?><svg id="_イヤー_1" xmlns="http://www.w3.org/2000/svg" viewBox="0 0 1612.63 418.61"><path d="M356.84,231c0,.7-1.75,1.05-6.3,3.85l1.05,2.45c-.35,.35-.7,.35-1.05,.35,0,0-.35,0-.35-.35-9.1,6.65-14.7,14.7-15.05,14.7h-.35c-.7,0-4.2,9.8-6.65,10.5-3.15,3.5-8.75,6.3-11.2,10.5-11.9,20.3-20.65,19.6-20.65,29.4-5.95,3.85-7.35,14.7-8.4,14.7-1.4,0-1.75-.35-2.1-.35s-1.75,0-1.75,1.4,1.4,2.8,1.4,3.85l-1.75,3.15c-.7,0-1.75-.7-2.1-1.05-1.75,5.95-5.25,7.35-5.25,11.9,0,2.1,.35,4.2,1.05,5.95-.35,0-5.25,7.7-5.25,8.05s0,.7,.35,1.05c-9.1,1.05-5.95,10.5-10.85,10.85-.35,.7-.35,1.05-.35,1.75,0,2.1,1.05,3.15,1.4,5.25-3.15,0-3.85,2.1-3.85,4.2,0,1.05,.35,1.75,1.75,1.75-1.75,3.15-4.9,8.4-7,8.75,0,1.75,1.05,2.1,1.05,3.5,0,1.05-2.45,1.05-2.45,1.05-.35,0-1.05,0-2.45-.35-.7,.7-.7,1.05-.7,1.4,0,.7,.35,1.4,.35,2.1,0,.35-5.25,6.65-7.7,10.15v3.5c0,2.1-5.6,13.65-13.3,13.65-9.1,0-10.85-5.95-10.85-15.75,0-9.1,10.5-17.5,10.5-29.05,2.8,1.4,5.95-14,9.8-15.05,0-9.8,11.9-17.5,11.9-21,0-7,15.05-15.05,15.05-26.6,.35,.35,.7,.35,1.05,.35-.7,0,4.2-4.55,4.9-5.25,0-.35-.35-1.05-.35-1.4,0-.7,1.05,0,1.05-.35,7.7-9.1,7-14,11.9-14,.7-8.05,7-7.35,7-13.65,0-3.15,8.4-16.1,8.4-24.5,0-.35-.35-.7-.35-1.4,4.55-2.45,3.85-10.15,8.05-12.95-.35-.7-.35-1.05-.35-1.75,0-2.8,4.55-12.95,7-15.05,0-5.95,1.75-9.8,4.2-18.9,0-.35-.35-1.05-.35-1.4s.35-.7,.35-.7c0,0,.35,.35,.7,.35l.35-.35c0-.35-.35-1.05-.35-1.4s.7-1.05,.7-1.75c0-1.05-.35-2.1-.35-3.15,0-2.45,2.8-1.4,2.8-4.55,0-7.35,.35-2.8,2.1-8.05,0-.7-.35-1.75-.35-2.45,0-2.1,3.15-2.1,3.15-5.25,.7-3.85,0-10.5,4.2-14-1.4-1.05-1.75-2.8-1.75-4.55,0-2.1,.7-4.9,.7-7.35,0-2.1-.7-4.2-2.1-5.95,.35-.35,.7-1.05,.7-1.75,0-1.4-1.05-3.15-1.05-5.25,0-.35,0-1.05,.35-1.75-8.75,0-23.45,5.95-24.85,11.9-7.35,0-8.4,8.75-14.7,8.75-3.85,0-.7,4.9-6.65,4.9-2.1,0-1.05,3.5-2.45,4.2-.7,0-1.05-.35-1.4-.35-3.85,0-5.25,3.15-5.25,4.55,0,.35,0,.7,.35,.7h-1.4c-.7,0-5.95,5.25-5.95,4.9v1.4c0-1.05-5.6,5.25-7,5.6,.35,.7,.35,1.05,.35,1.4-2.1,2.1-3.15,5.25-5.25,7.35-.35,2.8-4.2,.7-4.2,4.9-7.35,0-7.7,4.55-9.8,9.1-2.1,.35-4.2,.7-4.2,2.8,0,.35,.35,.7,.35,1.05-3.85,.7-5.6,3.15-8.05,4.9,0,8.05-14.7,14-14.7,17.15-.7,0-1.05-.35-1.75-.35-2.45,0-4.9,4.9-6.3,6.3-7.35,.7-10.5,6.3-15.05,6.3-5.25,0-9.1-1.75-11.9-4.55,.35-.7,.35-1.05,.35-1.75,0-2.45-2.45-4.2-2.45-7.35,0-1.75,1.4-4.55,2.1-5.6,1.4-5.95,.7-17.5,3.15-19.95-1.4,1.4,5.25-22.4,7-22.75-.35-.7-.35-1.4-.35-2.1,0-3.15,2.1-3.15,2.1-7.7,2.8-.35,1.4-3.85,4.2-4.2-.35-1.4-.7-1.75-.7-2.1,0,1.05,1.4-7.7,5.6-8.75,0-1.4-1.05-2.1-1.05-3.15,0,0,.35-1.05,.7-2.45-.7,0-1.05-.35-1.4-.35,0-.35-4.2,2.8-4.2,2.45,0,0-15.4,10.85-15.4,7-.35-.7-5.25,3.5-6.3,3.5-2.1,.35-4.2,2.1-4.9,2.45-.7,0-1.75-.35-2.45,0-.35,0,.35,1.05-.7,1.05-11.9,3.5-15.05,10.5-17.5,13.65-5.6,1.05-15.4,5.6-15.05,10.85q-.35,.35-.7,.35c-.7,0-1.05,0-1.75,.35-3.5,.35-4.2,4.55-6.65,4.9-.35,0-1.05,0-1.75-.35-.7,11.9-10.85,18.2-10.5,20.3,.35,.7,.35,1.4,0,1.4s-1.05,.35-1.4,.35c-.7,0-1.05,3.15-2.8,3.85-.35,1.4-8.4,4.9-8.05,7.35-10.5,1.75-14.35,10.15-14.35,10.15-2.45,.7-2.1,1.75-3.15,2.1-2.1,.35-2.45-1.05-4.9-.7-1.75,.35-3.5,4.55-4.2,4.9-8.05,1.4-16.1,10.5-24.5,11.9-1.4,.35-2.8-1.4-3.85-1.4-2.1,.35-2.8,1.75-4.2,1.75-6.3,1.05-14.35-5.95-13.3-5.95,1.05-4.9-2.8-7.35,2.1-11.9,.35-1.05,1.75-2.8,2.1-3.5,.35,.35,.7,.35,1.05,0,1.4,0,2.45-1.75,3.15-1.75,.7-.35,.7,0,1.4,.7,1.75-2.1,8.4-8.05,10.5-8.4l.7-.35c1.05,0,10.15-4.55,15.05-8.4,.7-.35,1.4-3.5,3.15-3.85,.35-.35,1.05-.35,1.05-.35,.35-1.05,13.65-9.1,12.6-9.1,2.8-.35,3.85-2.1,5.25-3.5-2.8-3.85-10.85-5.6-14-12.6-6.3-.35-10.5-3.5-17.5-3.5-4.2-2.8-11.2-5.6-13.3-10.5-.7,.35-1.4,.35-1.75,.35-1.4,0-2.1-1.05-3.85-1.05h-1.05c0-4.9-9.45-4.55-9.45-9.45h-.7c-1.4,0-2.1-.7-2.1-2.1v-1.05c-.35,0-.7,.35-1.05,.35-1.05,0-2.8-.35-2.8-1.05v-1.4q0-.35-.35-.35h-1.05q-.35,0-.35-.35v-1.4c0-.35-2.8-1.75-3.85-2.8-1.05-1.4,0-4.9-2.45-4.9,0-7.7-4.2-10.15-4.2-10.15v-3.15c0-2.1-1.75-2.1-1.75-5.25,0-1.75,1.05-2.45,1.05-3.85s-.7-2.1-1.4-2.1c-1.4,0,5.6-4.9,3.85-4.9,0,0,0-2.45-.35-3.15,.35,0,3.85-5.25,3.5-4.2,4.55-.7,6.65-3.15,8.4-6.3,5.95-.35,11.2-5.25,14-7.7,9.8-4.9,5.6-3.5,13.3-4.55,1.05,0,.35-1.05,1.4-1.05,.7,0,.35,1.05,.7,1.05,1.05,0,2.1-.7,3.15-.7,.35,0,1.05,0,1.4,.7,1.4-.35,.35-3.85,1.4-3.85,1.75,0,2.45,.7,4.2,.7,1.05,0,1.75-.7,2.8-.7,.35,0,.7,0,1.05,.7,1.4-1.05,3.85-1.75,7-1.75,2.45,0,5.6,.7,6.65,1.75h1.75c11.55,0,11.2,7.35,11.55,13.3,2.8,2.8,4.9,3.5,4.9,7.7,0,1.4-4.9,10.5-8.05,10.5-.35,0-1.05-.35-1.4-.35-.35,.7-1.05,.7-1.4,.7h-1.4c-1.05,0-.7,1.05-1.4,1.05h-2.8c-1.05,0-1.05,.7-1.4,.7s-.35-.35-.7-.7c-.35,0-1.05,.35-1.4,.35-1.05,0-1.4-1.05-2.1-1.05h-1.05c-5.6,0-5.25-3.85-9.8-3.85h-1.75v-.7c0-1.75-1.75-4.9-2.8-4.9-2.1,0-2.45,1.75-4.9,1.75-.35-1.75-2.1-3.15-2.8-4.55-2.45,1.05-11.2,2.8-11.2,4.55,0,1.4,1.4,1.75,1.4,2.45,0-.35-3.5,4.55-5.95,4.55-.35,0-1.05-.35-1.05-.35-.35,2.1-2.45,6.3-2.45,7.35,0,.7,.7,1.4,.7,4.2-.35,1.4-1.05,1.4-1.05,3.5v2.1c0,3.15-2.1,2.45-2.1,4.2v.35c0,.35-.35,.7-.35,1.05,0,4.2,12.25,8.75,13.65,15.05,3.15,0,5.6,1.4,5.6,5.6,9.8,.35,12.25,7.35,22.75,7.35,1.05,1.4,4.55,3.85,7,3.85h.7q.35,0,.35,.35v.7h1.4c.7,0,1.4,.35,1.75,.35s.7-.35,1.05-.35c2.45,0,5.6,4.55,5.6,3.5,0-.35,1.05-.7,2.1-.7,.35,0,3.5,1.75,5.25,2.45,.35-.35,.7-.35,.7-.35,3.15,0,2.1,4.9,12.25,3.15,.35,0,.7-1.05,1.75-1.4,.7,0,0,1.05,1.4,1.05,25.2-13.3,11.2-9.8,19.6-11.2,.35-.35,.7-.35,1.4-.35,1.05-1.75,4.55-5.6,5.6-5.6,1.05-.35,1.4,.7,2.45,.35,3.15-.35,5.6-3.85,7.35-5.95q.35,0,.7-.35c1.4-.35,3.15-2.1,3.15-2.45,.7-.35,1.4,.35,2.1,.35,1.05-.35,.35-2.45,1.4-2.45,5.95-3.15,18.55-7.35,19.6-12.6h1.05c1.75-.35,2.45,.7,3.85,.35,1.05-1.75,10.5-7.35,11.2-7.7,1.4-2.8,4.55-7.7,5.25-9.45,1.75-.35,2.45,.35,4.55,0,1.75-.35,1.75-1.05,3.15-1.4s5.25-3.15,8.05-4.2c0-1.05,0-1.75,.7-2.1,2.45-.7,11.9-7.7,11.9-9.1,0-2.1,2.45-2.1,8.05-6.65,3.15,.35,11.9,2.1,11.9,4.2,0,6.3-4.9,10.85-4.9,11.55-1.05,1.75-1.05,12.95-8.05,12.95,0,5.6-4.9,12.95-8.05,12.95,0,7.35-.7,15.75-11.9,24.5,.35,1.75,.7,3.5,.7,4.9,0,5.25-4.9,5.6-4.9,8.05,0,.7,.35,5.25-1.05,5.25,0,0-.35-.35-.7-.35,0,2.1-2.8,8.05-2.8,11.2,0,1.75,1.05,3.85,1.05,5.95-.35,2.8-2.1,5.6-2.1,8.75,.7,1.4,1.4,2.45,3.15,3.15,3.15-.35,4.9-2.45,5.95-5.25,.7,.35,1.4,.7,1.75,.7,3.5,0,6.3-11.55,11.55-11.55,1.4,0,7-7.7,9.1-7.7h1.05c-.35-.35,4.9-6.3,5.25-9.1,.35,.35,.7,.35,1.05,.35,3.15,0,15.75-15.4,18.55-21,7.7,0,6.3-8.05,8.4-8.05,5.95,0,14-9.45,16.45-11.9,2.45-2.1,8.05-4.9,9.8-8.05,.35,0,1.05,.35,1.4,.35,1.05,0,11.9-6.65,11.9-7.7l-.35-.35c2.8-.7,17.85-11.55,17.85-10.85,.7,.7,1.4,.7,2.1,.7,1.4,0,3.15-.7,4.9-.7-.35,1.75,6.3,1.75,8.05,1.75,0,.35-.35,1.05-.35,1.4,0,1.75,5.25,1.4,5.25,3.85,0,3.5,1.75,4.9,3.85,6.65,.35,9.45,4.9,16.45,4.9,25.2,0,2.1,.35,6.3-3.15,6.3-.7,0-1.05,0-1.75-.7,0,4.2-2.1,2.8-2.1,5.25,0,1.05,.35,1.75,.35,2.8-.7,2.8-2.1,2.8-2.1,5.95,0,1.75,.7,3.15,1.05,5.95-3.15,6.3-4.2,22.05-10.15,25.55,0,3.85,.35,10.85-3.85,12.95,0,10.15-5.95,13.3-5.95,22.4,0,.7-.7,3.15-.35,3.15,3.15,0,2.8-1.05,3.85-2.1,4.9,0,7.35-14,15.4-14.35,0,.7,6.65-3.85,15.4-14,4.9-6.65,8.05-3.15,9.1-8.05,0,.35,4.55-3.15,8.75-7h.7l14-11.9h1.05c1.4-.7,2.1-2.8,3.5-2.8,.7,0,1.05-.7,.7-2.1v-.7l.7,.35c.7-.35,5.25-5.6,5.6-6.65l-.35-.7c5.6-1.75,8.75-5.95,10.85-9.1,1.05,0,11.55-10.5,12.25-12.6l.35-2.1h.35c1.4,0,2.8-3.15,4.2-3.15h.35l.35-.35v-1.05c2.8,0,7,1.75,7.35,4.55,0,3.15-2.45,7-2.45,7.7s.35,1.05,.35,1.4c-.7-.35-3.5,3.15-4.2,3.85-.35,2.1-9.8,5.95-9.8,8.75,.35,.35,1.05,.35,1.05,.7s-2.8,1.4-4.9,3.15c-.35,0-.7,1.75-1.05,1.75-.35-.35-1.75-.35-2.1-.35v1.05c-1.05,1.75-3.15,4.55-7,7.35,.7-1.05-3.85,3.15-4.2,5.25v.35c-2.45,0-5.95,2.8-5.95,4.2l-.7,.35v.35h-.7c.35,.7-7,5.6-7.35,6.3v1.4l-.35-.35q-.35,0-.7-.35c0,1.75-1.4,1.4-1.4,2.1v1.05c-8.05,1.4-9.8,15.4-17.85,17.15-.35,1.4-3.15,1.75-3.5,3.5-2.8-.35-1.75,2.45-2.8,2.45,0,0-.35,0-.7-.35l-.35-.7-1.75,2.1ZM3.69,115.15v0Z"/><path d="M529.39,184.45c0-1.4,0-2.45-1.05-2.8,.7-2.45,2.8-4.2,3.15-6.3,0-.35-.7,.7-1.4-.7-3.5,2.8-5.25,12.6-11.55,11.9,0,1.75-1.4,2.45-1.4,3.85v1.4c0,.7-2.1-.35-2.45,.35-.7,.35-.35,2.1-1.4,2.8-.35,0-2.8,2.45-2.8,3.15,0,.35,.35,1.05,.35,1.4s0,.35-.35,.35h-1.05c-2.45,0-6.65,4.2-6.65,5.6,0,.35,0,.7,.35,1.75-3.15,3.5-7,3.15-7.35,8.05,0,0-2.8,2.45-2.1,2.8-2.8,1.75-8.75,7.35-8.05,6.3-.7,1.05-2.1,2.45-2.8,4.2,0,2.1-13.3,7-13.3,5.95,0,1.05,1.05,1.75,1.05,2.45,0,0-.35,0-1.05-.35q-.7,0-.7,.35c0,.35-1.05,.7-1.05,1.05-.35,.7-5.95,2.45-6.3,2.1-2.45-.7-3.15-1.4-4.55-1.75-3.5,1.05-8.05,2.45-11.9,2.8-4.55-2.45-10.5-5.95-10.15-11.2-4.2-.35,3.5-13.65,.35-15.4,0-6.65,2.1-6.3,2.8-11.55,0-3.5,2.1-3.85,2.1-8.4,2.1-.7,6.65-8.05,3.15-10.85,0-1.75,2.1-5.6,2.45-12.25-.35,0-.35-.35-.35-.35,.35-1.4,2.1-.7,2.45-1.75,0-.35-.35-1.05-.35-2.1,0-1.4,3.5-2.45,3.5-5.25,0-1.4,.7-3.15,1.05-5.25,1.05,0,1.4-.35,1.4-1.75,0-.35-.35-1.05-.35-1.4,.35-3.15,2.1-1.75,2.1-3.15,0-1.05,3.15-8.75,3.15-9.45,.35-1.05,2.1-1.4,2.1-2.8,0-1.05-1.05-2.45-.7-3.5,1.05-1.05,2.8-2.45,3.15-5.25,0-1.75,1.05-2.1,1.05-3.85,0-.7,.35-1.05,.35-1.05-.35,0,3.15-6.3,2.8-6.3,.7,0-.7-2.1-.35-2.1,1.75-.7,1.4-2.8,2.1-5.95,5.95-.7,0,0,4.9-2.1,2.45,.7,3.5,2.1,7,2.1,.35,0,.7,0,1.4,.35,3.15,5.6,9.8,7.7,9.1,18.2,0,2.45-2.8,3.15-4.9,9.8,0,1.05-7.7,9.1-8.05,9.45-4.2,3.15-7.7,15.4-6.65,14.7-2.8,2.1-2.45,5.25-5.25,9.8,0,.35-.35,4.2-.35,4.55,0,2.1-2.1,3.85-2.1,5.6v1.75s-1.05,2.1-3.15,3.85c.7,.7,.7,1.75,.7,2.45,0,1.4-.35,2.8-2.1,3.5,.7,.35,0,9.8,0,11.2,0,1.75-1.05,4.2-1.05,5.6-1.05,2.45-2.1,6.65,3.5,6.65,1.75,0,4.9,.35,5.25-1.75v-1.05c2.45,1.05,3.5-.7,7-2.8,1.05-.7,3.15-1.05,4.2-2.1,3.15-1.4,2.1,0,8.05-4.2,6.3-7.35,9.45-7.35,11.2-9.45,2.8-2.45,7.35-4.55,7.7-9.1v-1.05c3.85,0,10.5-8.05,11.2-10.85,0-1.75,4.9-3.5,5.25-5.6,0-.35-.35-.7-.35-1.05,.35-1.75,5.25-5.25,5.25-7,0-.35-.35-.7-.35-1.05,7.7-3.15,3.5-7,7.35-10.15v-1.75c.35-7.7,4.55-9.1,11.55-8.05,1.4,0,3.5,.7,5.25,1.05-.35,.35-.35,.7-.35,1.05,0,1.4,2.8,1.4,2.8,3.5v.35c0,2.45,4.2,1.75,3.85,3.85,0,1.75-1.4,1.05-1.75,2.45,1.05,.7,1.75,2.1,1.4,3.85-.35,6.3-4.9,2.8-5.6,5.95,0,2.1,2.45,3.5,2.45,4.2s-1.05,1.05-1.05,1.4c0,.7,.7,.7,.7,1.4,0,1.75-1.05,2.8-3.15,3.85,.35,1.75,.7,2.8,.7,4.2-.35,1.05-1.75,.7-1.75,1.4,0,.35,.7,1.4,.7,2.45,0,.35-.35,.7-.7,1.4,0,.7-1.75,1.05-1.75,2.1s.7,4.55,.7,6.3v3.15c0,1.05,0,2.45,1.05,3.15-1.05,3.15-2.45,6.3-2.45,9.1,0,1.05,.35,2.1,1.4,2.45-.7,1.05-1.05,2.8-1.05,3.85,0,3.5,2.45,6.3,3.85,9.1,4.2-.7,9.1,0,11.9-1.75,.7-.7,8.4-3.85,7.7-3.85,7.7-2.45,3.15-1.4,11.2-6.3,5.6-3.5,10.85-7,16.45-12.6,.35,0,.7,.35,1.4,.35s1.05-1.05,1.4-1.75c3.85-2.1,3.85,.7,7.7-5.25h1.4c1.75,0,0-4.2,2.1-4.2,1.05,0,1.4,0,1.4,1.05,6.3-4.2,12.6-11.55,14.7-11.55,2.1-1.4,3.5-3.85,5.25-5.95,.7-1.05,7.35-4.9,7-4.9h.7c-.35-.7-.35-1.05-.35-1.4,0-1.4,9.1-10.15,13.3-12.6v-1.05c0-2.1,3.15,1.05,3.15-.7,0,0,3.15,1.05,3.15,.7-1.4,1.05-1.4,6.3-2.8,7-1.4,1.05-1.4-.35-2.1,.35-.35,0-.7,.7-1.05,1.05-.7,.7,.7,2.45-2.1,4.2-1.4,1.4-4.2,1.4-3.5,1.75,0,.35-4.9,7.7-7.35,10.5-3.15,4.2-10.15,8.4-9.8,8.4-2.8,0-4.9,4.9-5.95,7.7-1.4,.35-5.95,2.8-4.9,2.8q-.35,0-.7-.35c-3.15,3.85-4.9,3.85-8.05,7.35v.7c0,1.75-3.5,1.4-3.5,2.1v.7c-1.05,1.75-5.95,2.45-5.95,5.6-.7,2.1-5.25,3.5-5.95,4.2-7.35,3.5-15.05,11.2-14,10.15-.7,.7-1.05,1.05-1.05,1.4-.35,0-3.15,1.4-4.9,1.4-.7,0-1.4,0-1.75-.35-4.9,4.2-9.1,5.25-12.25,8.05h-1.05s-3.85,2.8-10.85,2.8c-3.15,0-1.4-2.1-3.5-2.1-.7,0-1.4,.35-2.45,.35,.35,0-5.95-3.85-5.95-3.85v-1.4c0-1.75-4.2-2.45-3.85-2.8h-.7v-1.75c0-.35-1.75-.35-1.75-1.05v-1.4c0-.7-1.4-.7-1.4-1.05-.7-.7-1.75-6.3-1.75-5.25l-.35-.35c0-.35,.35-.35,.35-.7-.35,0-2.1-5.95-2.8-9.1,0-1.75,1.05-2.45,1.05-4.2,0-2.1-1.4-3.5-1.4-5.6,0-1.75,1.75-3.85,1.75-5.6v-3.85c0-.7,1.4-.7,1.75-3.85Z"/><path d="M717.33,168c.35-1.4,.35-3.15,.35-4.2,2.8-1.05,3.15-4.9,5.6-6.65,0-1.75,0-3.15,.35-4.9,2.1-1.75,3.15-4.55,5.25-5.95,2.1-7.7,8.05-12.6,8.4-19.6,0-2.1,0-4.2,1.05-5.6,.35,0,.35,.35,.7,.35,2.1,0,1.4-1.75,5.25-1.4,1.75,0,2.1,1.05,2.8,1.4h1.75c1.4,0,5.6,3.85,5.25,5.95v.7c2.1,1.75,4.2,3.15,5.6,5.25-.35,2.45-2.1,3.85-2.1,6.65-.35,.7-.35,1.75,0,2.1,0,0-.35,.35-.35,.7-.35,2.45,2.8,.7,2.1,7.7,0,5.95,0,11.2,3.15,14,0,1.05-.35,1.75-.35,2.8-.35,4.9,1.05,7.7,3.5,10.5v2.8c0,2.1,3.15,7.35,3.15,7,0,1.05,2.1-1.05,1.75,1.75,0,1.4-1.05,1.75-1.4,3.15,.7,3.15,3.15,4.55,5.25,6.3,0,.7-.35,1.4-.35,1.75-.35,2.8,1.75,4.55,4.9,4.9,2.1,2.1,2.1,4.9,5.95,5.25,1.75,.35,4.9-5.95,5.25-5.6v-3.5c2.8,.35,2.45-3.15,4.55-4.2,.35-.7,0-1.75,0-2.45,.35-5.25,2.45-8.75,5.25-11.9-.7-1.75-1.05-3.85-.7-6.3,.35-4.55,2.1-5.6,2.45-9.45l.35-2.8c.35-1.75,1.05-2.45,1.4-3.5,0,0-1.75-3.85-1.4-6.3,0-1.4,1.4-1.75,1.4-2.1,0,0-.7-.7-.35-2.45,0-1.75,.35-3.5,.35-4.9s0-3.85-.7-3.85c0-.35,.7-2.1,.7-2.8,0-1.05-.7-1.4-.7-1.4,.7-1.05,.7-1.4,.7-3.15,.35-2.1,0-3.15-1.05-4.55v-1.05c.35-1.05,0-2.1,0-3.15,0-.35,.35-2.1,1.05-2.1,0,0-1.4-3.15-1.4-4.55l.35-2.45c.35-2.45-1.4-4.9-1.4-7,0-1.4,.7-2.1,1.05-4.2-1.05,0-1.05-1.4-1.05-1.4,0-1.75,1.75-3.85,4.55-3.5h1.05c.7-.35,1.05-.35,1.05-.35,.35,0,1.4,.35,2.1,.7,.35,0,2.1-.35,2.8,0,.35,0,.7,.35,.7,.7v.35c4.55,1.05,5.6,1.05,5.95,4.9,.35,0,.35,3.85,.7,4.2-1.05,1.05,.7,11.2-.7,12.6-.35,2.45,.35,4.9,.35,7,0,1.75-.7,2.45-1.05,4.2,0,.7,.35,1.75,.35,2.8-.35,.7-.7,1.4-1.75,1.75,1.4,.7,2.1,2.8,1.75,5.25v1.75c-.35,.7,0,1.4,0,1.4-.7,.35-.7,1.05-.7,1.05v1.05c0,.7,0,1.05-.7,1.4,0,.35-.35,.7-.35,.7,0,1.4-2.8,0-4.2,3.15,0,4.2,6.65,1.75,6.65,4.9-.35,3.5-1.4,4.55-1.75,6.65,0,.7,0,1.4,.7,2.45-2.45,.7-2.8,3.5-4.2,4.9,0,1.75,.35,3.5,2.1,3.5h1.4c-.7,1.05-1.4,2.1-1.4,2.8v1.05q-.35,.35-.35,.7c0,.35,.35,.7,.35,1.75,0,1.4-.7,.7-1.05,1.75v.7c0,.35,0,1.75-1.05,4.2v1.4c0,1.05-2.1,1.05-2.1,3.15,0,.7,.35,1.75,0,2.8,0,1.4-1.75,3.5-2.45,3.85v2.8c0,4.55-5.25,7-5.95,12.6v1.05c-9.1,5.6-6.65,7.7-8.05,7.7-1.05,.7-1.4,.35-2.1,.35h-1.4c-1.4,0-3.5,.7-4.55,.7-6.3-.35-12.6-8.75-18.9-11.55-1.4-2.1-2.8-4.9-3.5-7-1.75-2.45-7.7-5.95-7.7-7.35-1.05-2.1-.35-5.95-1.4-8.4-.7-4.2-2.1-7-5.6-9.1,.35-6.3-.7-13.3-4.55-18.55v-1.05c.35-2.1-1.75-7.7-2.45-7.7-3.15-.35-4.2,4.2-4.2,4.2-2.8,0-2.8,2.45-5.25,3.15,0,1.75,.7,3.5,2.1,4.55-2.1,2.8-5.6,4.9-8.75,7,.35,1.4,.35,2.1,.35,2.45,0,2.1-1.4,8.05-5.6,7.7,.35,1.05,.35,1.4,.35,2.45-.7,8.4-9.8,15.4-9.1,15.4-.35,0-.7-.35-.7-.35v1.75c0,1.75-2.1,1.75-2.1,4.2-.7-.35-1.4-.35-1.75-.35-3.15,0-3.15,2.8-5.25,4.2,.35,1.4,.35,2.45,.35,3.15-.35,3.15-1.4,9.8-5.6,9.45-.35,2.45,.35,2.45,.35,3.15s-4.9,8.4-8.05,10.85l-3.5-.7h-3.15c-.35,0-1.75-.35-2.8-.7-2.8,0-3.85,2.45-6.3,2.45-6.3-.35-8.05-10.5-7.7-9.8-2.45-4.55-2.45-5.6-2.45-9.8,0-1.75,.7-2.8,1.05-4.2,0-2.1-1.05-7-1.05-7.7,0,0,0-1.05,1.05-.7,0,0-.7-2.45-.7-3.15,0-1.05,.35-1.05,1.75-1.4-.35-1.05-1.05-4.2-.7-7.35,.35-5.25,2.1-12.6,3.85-13.3-.35-1.05-.7-2.45-.35-3.15,.35-4.55,2.45-6.3,2.8-8.75v-2.8c0-.7,.7-.7,.7-1.05s-.7-.7-.35-2.1c0,0,.7-.35,1.05-.7,0-.35-.35-1.05-.35-2.1,.35-1.4,.7-2.45,.7-3.5v-3.5h1.05c0-.7-1.05-1.05-1.05-1.75,0-.35,.35-.7,1.05-1.4,1.05-1.05,3.85-8.4,3.85-7.35-.35-2.45-2.1-3.85-3.85-5.25-.7-4.9-1.4-9.1-1.05-12.95,.35-10.85,8.05-16.1,7.35-16.1h.35v-1.75c0-3.85,2.8-8.4,7-8.05h1.05c.7,0,1.05-2.1,2.45-1.75,4.9,1.05,8.4,8.4,10.85,13.65,.35,1.75,2.45,1.75,3.5,3.15-.7,.7-.7,1.4-.7,2.1v3.5c-.35,4.2-3.5,3.15-3.85,5.6,0,1.05,.35,2.8,0,3.85,0,1.4,0,2.45-.7,2.45v.7c-.35,2.45-5.25-1.75-5.6,5.95,0,2.8-2.1,3.5-2.45,5.6,0,1.4,.7,2.8,.7,3.85,0,1.75-1.05,3.5-1.05,5.25v2.1c0,2.1-3.5,1.05-3.5,3.15v1.75c-.35,3.15-1.05,4.9-1.4,7.7-2.8,1.05-1.4,4.9-4.2,5.95,0,3.15,.35,6.65,.35,9.1-.35,2.1-.7,3.85-2.1,5.6,1.4,2.1,1.05,5.25,2.1,7-.35,2.1-1.05,3.5-2.45,4.9,0,1.75,.35,3.15,.35,5.25l-.35,1.75v1.75c0,2.1-1.4,2.1-1.75,3.15,0,1.75,2.8,2.8,2.1,2.8,3.85,.35,9.45-12.6,9.45-10.15v-1.75c.35-1.4,2.45-1.4,3.15-2.1,.35-.35,.35-3.15,1.4-3.15h.7c.7,0,.7-2.1,2.45-1.75,0-.35-.35-.35-.35-.35,0-1.4,.7-1.4,.7-2.45l.35-1.75c.35,0,.7,.35,1.05,.35,.7,0,.35-1.75,1.05-2.8,1.4-.7,4.55-6.3,7.35-7,0,0-.35-.7-.35-1.05,.35-2.1,1.4-4.2,2.45-5.6v-1.4c0-.7,.35-.35,1.05-.35,1.05-2.1,1.75-5.6,4.55-6.65Z"/><path d="M950.08,129.85c-3.5,0-6.65-2.45-7.35-5.6-.35-.35-.35-.7-.35-1.05-2.1,0-2.45-2.1-4.55-2.1-4.55,0-3.15,2.8-4.9,4.2-2.8,.7-8.75,6.3-8.4,9.45h-.7c-2.45,0-1.05,2.45-3.5,2.45h-.7c-.7,.35,.35,10.85-3.5,9.45,.35,8.05-9.8,3.5-8.75,11.2-2.8,2.1-3.15,1.75-3.15,5.95q0,.7,.35,1.4c0,6.3-9.45,6.65-9.45,11.2,0,.35,.7,1.4,.7,2.1,.35,1.05-.7,1.4-.7,2.1-2.1,2.8-1.05,9.8-3.15,13.3-.7,1.4-1.4,11.2-1.4,11.55,0,.7,.7,1.75,.7,2.8,.35,2.45-.35,5.25-.35,7.35,.35,1.4,1.75,3.85,3.5,3.85,1.05,0,1.4-1.75,2.1-2.45,1.05-2.8,6.3-2.1,6.65-7.35,.35-1.05,2.1-1.4,4.2-2.45-.35,0-.7-.35-.7-.7-.7-5.6,7.7-8.4,5.6-8.4l1.75-4.2c-.35-.35,3.5-4.55,4.55-4.55,0,0,0-1.05-.35-1.4-.35-1.75,2.8-2.8,2.45-4.2v-1.05c0-.35,1.4,.35,1.4-.35-.35-.35-.35-.7-.35-1.05-.35-.7,.7-.7,1.05-1.05,0-.35-.35-1.05-.35-1.05,0-1.05,1.75-1.05,1.75-1.4,0-.7-.35-1.75,1.4-1.75h.7c-.7-4.55,4.55-5.95,3.85-8.4-.7-4.55,7.35-5.95,7-9.45v-1.05l-.35-.35c.7-.35,1.05-2.8,1.4-4.55,0-.35,0-.7-.35-1.4v-.35c.7-4.2,3.15-9.8,4.2-9.8h1.75c1.05,0,1.4-.35,1.75-.35,1.05,0,2.45,.35,4.2,.35h3.15c-.35,0,8.4,3.85,9.1,6.3,0,1.05,0,2.1,.35,2.45,.35,2.8,3.15,3.5,3.15,4.9,0,.7,.35,1.4,.35,2.1,0,1.75,.7,1.75,1.05,3.5,0,1.75-1.4,2.8-.7,5.95,0,1.4,1.05,3.85,1.4,5.95,0,0,.7,.35,.7,.7,0,1.05,0,3.5,.35,6.65,.35,.35,.35,.7,.35,.7,0,0-.35,0-.35,.35,.7,3.85,3.85,6.3,4.9,12.6,.7,2.45,1.05,4.55,2.8,6.65,0,1.05,.35,2.1,.35,3.15,.35,2.1,1.75,4.2,2.1,6.65,.35,1.05,.35,1.4-.35,2.45,1.4,1.05,2.1,2.8,4.2,3.15,1.4,.7,1.4,2.45,2.8,3.15,5.25,2.8,7.35,3.5,9.1,3.5,1.4,0,2.1-.7,3.15-.7,2.1,0,2.8,.35,4.55,.35,2.1,0,12.95-1.75,13.3-3.15,2.45,1.05,4.9,2.45,6.65,3.5,0,2.1-2.45,2.8-4.55,3.15,.35,.7,1.05,1.05,1.05,1.4,.35,4.2-3.5,2.8-4.9,3.85v.35c0,.35-15.75,2.1-17.15,2.45-.35,0-.7-.35-1.05-.35h-2.45c-3.5,0-18.2-2.45-19.6-8.4-7-.35-8.05-7.35-12.95-10.15l-.7-1.4c-.7-5.95-6.3-13.65-5.6-12.95-.7-2.45-2.45-7.7-2.8-9.8,0-.35,0-.7-.35-2.8,0-1.4-.7-1.4-.7-2.45,0,0,.35-.35,.35-.7,0,0-.7,0-.7-.35-.35-1.75-.35-3.15-.35-4.55,0-1.05-.7-2.1-1.75-2.8-4.2,1.05-6.3,6.65-8.75,10.85-3.5,1.05-8.4,3.85-8.4,6.65,.7,2.1,3.5,1.4,3.85,3.5-1.05,0-.7,2.1-.7,2.45-.35,.35-1.4,.35-1.4,.7v.7c0,.7-1.4,.7-2.1,1.05-4.2,3.85-6.3,9.1-10.15,11.9,1.05,5.6-3.5,3.5-2.45,8.75v1.05c-3.85,1.75-8.4,9.1-11.55,9.1-.7,0-1.05-.7-2.45-1.05-1.75,0-4.55,3.15-4.55,2.8-2.1,0-7.35,0-7,1.4,0,0-1.75-.7-2.45-.7-1.4,0-1.75,.7-2.8,.7-1.05-.35-1.75-1.4-2.8-1.4h-1.4c-5.6,0-9.45-8.4-9.45-8.4,0-.35-.35-.7-.35-1.4-1.05-.7-2.8-1.05-2.8-2.1-.35-2.1,1.05-3.5,.7-5.6-.35-1.4-.35-2.45-.35-3.15-.35-1.05,.35-1.4,.35-2.1,0,0-1.05-.35-1.05-1.05-.35-1.75,1.75-7.7,1.75-9.8v-.35c-.35-1.05,1.05-1.4,1.05-2.45v-1.05c-.35-1.75,1.4-3.15,.7-7.7,0-.35-.35-1.4-.35-1.4,4.2-1.75,2.1-7.35,4.55-8.75-.35,.7,2.1-8.4,4.2-8.75,.35-.35,.35-.7,.35-.7-.35-1.05-1.75-1.75-1.75-1.75,0-2.8,5.95-8.75,5.25-8.05,.35-1.4,1.4-3.15,1.4-4.9h.7c5.6,0,.35-9.8,7.35-10.5,0,0-.35-.35-.35-.7-.35-1.05,1.75-1.05,1.75-3.15,0,0,0-.7-.35-1.05,1.05,0,1.05-.7,2.45-.7h.7c0-.35-.35-.7-.35-.7,0-.7,0-1.05-.35-1.75,0,0,1.05-2.45,2.1-2.45h1.05c.7,0,0-2.45,.7-3.5,4.9-3.15,.35,1.05,7-9.45-.35-.7,3.85-2.1,5.25-5.6,5.95-2.8,8.05-8.75,12.95-8.75,.35,0,1.4,.35,1.75,.35,0-1.05,3.15-2.8,4.55-2.8,.7,0,.7,.7,1.05,.7,0-.35,3.5-1.05,5.25-1.05,2.1,0,1.05,1.05,1.75,1.05h1.75c8.4,1.75,11.9,7.7,11.55,7.35,0,.35-.35,.35-.35,.7,.35,.7,2.45,3.15,2.45,4.2,.35,2.1-1.05,3.5-.7,5.6,0,.7,0,1.05,.7,1.4-3.85,1.05-5.6,5.25-5.95,5.25-.35,.35-.7,.35-1.4,.35Zm46.9,103.25c-.7,0-.7-.35-.35-.35l.35,.35Z"/><path d="M1254.58,131.25c-1.05-.35-2.1-.35-2.1,1.4-.35,2.45,.35,1.4,.35,2.8,0,2.8-7,0-6.65,5.95-4.2,1.4-3.15,7.7-8.05,9.45-.35,0-.35,.7,0,1.05-.7,1.75-3.15,2.1-2.8,3.15-.35-.35-1.05,1.05-1.4,1.05v1.05c-1.4,1.75-3.5,4.9-7,8.05-.35,.35-.35,.7-.35,1.05,0,1.05-3.5,1.75-3.85,4.55v.35c-2.45,.35-5.95,3.15-5.95,4.55l-.7,.7c.35,.7-1.05,0-1.05,0-1.05-.35-1.05,2.8-1.75,3.85-1.4,1.05-3.85,.7-4.9,3.15,.35,1.05,0,1.4-.35,1.4,0,0-.35,.35-.7-.35,0,1.75-1.75,1.05-1.75,2.1v1.05c-3.15,.35-3.5,3.5-5.6,4.55-2.8,3.15-10.15,11.55-10.5,10.5-.7,1.4-3.15,2.1-3.5,4.55-.35,0-1.05,.35-1.05,.35-2.1-.7,0,2.45-2.1,1.75l-.35-.7v.7c0,.7-1.05,1.4-1.05,1.75-.35,2.1-11.2,8.05-13.3,8.4,0,.35-.35,.7-.35,.7-.7,2.1-1.05,2.1-1.4,4.2,0-.35-.7-.35-.7-.35-2.1-.35-4.9,3.5-5.6,4.9-.35,.35-1.05,0-1.4,.7,.7,.7-.35,.35-1.05,0-.35,0,0,.35-1.05,0-2.1,.35-7.7,3.15-10.5,2.8l-4.9-1.4c-.7-2.1-4.2-3.5-5.25-3.85-.7-5.25-4.9-7-7.35-10.5-1.05-2.45,1.4-2.1,1.05-4.9-1.05-.35-.7-1.75-1.05-3.5,0,0-2.45-4.55-.7-6.65h1.05c-.35-1.4-1.75-2.1-2.1-3.15-1.05-4.55,1.05-8.4,2.1-12.25,.7-2.8,.7-5.95,1.4-7.7,0-.35,.7,0,.7-1.05,0-.7,1.75-2.8,2.1-4.55,.35-2.45-1.05-2.45-1.05-3.5,0,.35,.7-.7,1.05-1.05,0-.7,2.45-5.6,2.8-7-1.75,0-3.15,0-3.15,1.4,0,2.1-2.45,.35-3.85,2.1-1.4,.35-.35,1.75-1.75,2.8,0,1.05-4.2,2.45-3.15,5.95-6.3,.7-4.2,9.1-10.15,9.8-.35,4.9-3.5,7.35-6.3,9.8-1.75,1.4-2.45,2.8-4.2,2.8,1.05,3.85-2.1,4.2-2.45,7-2.8,1.05-5.25,2.8-8.05,4.2v7c-1.05,1.05-1.75,3.85-4.9,4.55-1.75,0-1.4,2.1-1.75,3.15-.7,.7-3.5,0-3.15,2.1-4.55,.35-7.7,3.15-12.25,5.25-.7,.35-3.5-1.4-3.5,1.4-3.15-.7-6.3-2.1-8.75-4.9-1.75,0-1.75,1.4-3.85,1.05-3.15-2.8-3.85-8.4-6.65-12.6-1.4-2.1-1.4-5.95-2.1-9.8-.35-.7-.7-1.4-.7-2.45,0-2.1,1.75-4.9,2.1-6.65,0-1.4-1.4-3.5-1.05-4.9,0,.35,1.05-.7,1.05-1.05,0,0-.35-1.05,0-1.4,.35-2.1,1.4-4.55,2.1-6.65,1.05-1.75,0-4.55,2.1-4.55,0-3.15-2.1-5.25,.7-7,.7-3.15-1.4-4.2,.35-5.95,0-2.45,.7-3.15,3.15-3.15-.35-4.9,1.75-7,2.1-10.5,1.05-1.05,2.8-1.75,3.15-2.8,.35-1.75,2.1-2.45,2.1-3.5,0,0,.7-2.45,1.05-2.8l1.75-1.05c.7-1.05,.35-2.45,1.05-3.85,.35-.7,2.8-.35,3.15-1.05,.35-.7,.35-2.1,.7-2.45,1.4-1.4,2.8-2.8,4.9-3.5-.7-2.8,1.05-2.8,.7-5.95,3.15,.35,2.1-3.15,5.95-3.15,.7-.7,.7-3.15,1.4-4.55,2.8,0,3.85-1.4,4.55-3.15,10.5-1.05,16.1-2.8,24.85,0,1.05-.35,8.05,2.8,9.1,1.4,.7,1.05,5.95,1.05,7.7,2.1-.35,2.1,3.5-1.05,3.85,1.05,.35,1.05,1.4,2.45,2.8,2.8,0,0,1.4-.35,1.75,0,.7,.35,.7,2.45,1.4,2.8,3.5,0,3.85,0,5.25-1.4,0,0,2.45-.7,2.45-1.05,0,0-.35-1.05,0-1.4,1.05-1.75,2.8-4.2,3.85-6.3,.7-.35,1.05,.7,1.05-1.05v-1.05c.7-2.1,0-1.4,1.4-4.9,3.15,.35,4.9-1.4,7.35-1.75,1.4,0,1.4,.7,2.8,1.05,1.75,.35,3.85,0,4.9,.7,.7,1.05,1.75,2.45,3.5,3.85,.7,.35,1.75-.35,2.1,0,.35,1.05,1.4,3.15,3.5,4.2-.7,5.25-3.85,8.75-4.55,13.3-1.05,.7-2.1,1.4-3.15,1.4-.35,4.55-5.25,7-2.8,10.85-2.1,1.05-2.45,3.15-5.95,2.1-.35,1.4,0,2.45-1.05,3.85-.35,.35-1.75,1.05-1.75,1.4-.35,2.1,0,4.55,0,6.3-.35,1.05-2.8,2.8,0,3.15-2.45,2.1-3.85,4.55-3.15,9.1-2.45,1.4-3.15,4.55-4.55,5.95,.35,2.8-1.05,5.95-1.4,8.05-.35,2.1-1.75,2.8-1.75,4.2-.35,1.75,.7,3.15,1.05,5.25,0,.7-.35,1.75,0,2.8,.35,1.4-.35,4.55,0,7.7,0,1.05-.35,5.6,.35,5.95,.35,2.8,.35,2.45,1.75,5.25,.35,1.05,2.1,1.05,3.15,1.4,3.5-.35,7.7-2.8,9.8-4.55,8.05-4.2,17.15-12.6,17.15-11.9,4.2-7,8.05-4.55,8.75-9.8,0-.35,.35-.7,.35-.7,3.5-1.4,3.85-3.15,7.7-6.65h.35c.35,0,.7-.35,.7-.35,1.4,.35,1.75-2.1,2.1-2.1,3.15-2.8,8.05-5.25,9.45-9.45,1.4-.35,1.75-1.05,2.8-1.05h.7c1.05-.7,1.75-4.2,3.15-3.5,.7,0,.35-.35,.7-1.05,0-.35,.35-.35,.35,0v.7c.35-.7,.35-1.4,.35-1.75l-.35-.35h1.05c.35,0,1.75-3.15,2.45-4.2,.35-.35,2.1-1.4,2.45-2.8,0-.35,1.05-.7,1.05-1.05-.7-1.4,8.05-8.75,8.75-9.1,0-2.1,1.75-4.55,3.85-5.25,.35,0,.7-.35,1.05-.35,0,0,.35-.35,.35-.7-.35-.35-.35-1.05-.35-1.4s11.55-14,11.9-14.7c-.35,.35,2.45-2.45,2.45-2.8,5.25-2.1,3.15-4.9,5.6-8.05l3.15-4.9c1.05-1.75,4.2-6.3,4.2-7.35-.35-1.75,1.4,.7,1.05-1.4l.35-.35c1.4,.35,2.8-5.6,4.2-4.2,.35-.35,.7-.35,.7-.35v-1.05c.7-.35,1.75,0,2.8,.7,3.5-.35,5.95,.7,5.25,7.35-5.25,5.95,2.45,4.9-3.5,6.3-.7,1.75-.35,2.8-1.05,3.85-.35,1.05-4.2,3.5-5.95,5.6-1.05,1.4-4.2,3.85-2.8,4.9,1.4,.35-1.4,1.4-3.5,4.55-.7-.35-.7,1.75-1.4,1.75-.35-.35-1.4-.7-1.75-.7v1.05c-.7,.35-5.6,6.65-5.95,7Zm-129.85,3.5c-.7-.35-.35-3.15-.35-3.5-1.75-.35-3.5,.35-4.9,0,0,0-.35-1.05-.7-1.4h-1.05c-.7,0-.35-1.05-.7-1.05-3.5-.7-7-.7-9.45-1.05-2.8-.35-2.8,1.75-4.55,2.1-2.1,1.4-3.85,1.4-5.95,1.4-2.1,4.55-7.35,5.6-7.7,10.85-1.4,1.4-3.85,1.05-3.5,4.9-1.75,0-1.4,2.1-2.1,3.5-2.8,1.05-2.8,4.2-3.85,5.6-2.1,2.8-3.5,3.85-4.55,7-.35,1.4-1.4,.7-2.1,3.15-3.5,2.1-1.75,7.35-3.85,9.45-2.45,4.2-2.1,12.25-3.15,17.5-2.1,.7-1.05,2.8-1.05,4.55-1.75,0-.7,2.45-1.4,2.45,.35,1.05,0,1.75-.35,2.1,.35,1.05,.7,.7,.7,1.05,1.4,4.2,1.4,9.8,6.3,9.8,3.15-1.75,4.55-5.6,8.4-6.3-1.05-4.2,2.1-4.55,3.15-5.25,1.05-1.05,0-2.8,1.05-2.45,2.45-1.05,3.85-1.75,7-2.1-2.1-2.1,1.4-3.15,2.1-4.55,.35,0,0-.7,0-.7,.35-1.4,.7-.7,.7-1.05,.35-.7,.35-2.8,1.75-3.85,2.45-3.15,6.3-4.55,8.75-7.35,.35-.35,0-1.75,0-2.45,0-.35,1.75-.7,2.1-1.05,.7-1.05,.35-2.8,1.05-4.2,0-.35,.7-.7,1.05-1.4,1.05-1.05,3.5-2.1,3.85-2.8v-3.5c1.4-1.75,5.25-3.5,5.6-4.55,.7-1.05,.7-2.45,1.05-3.5,.7-.7,2.45-.7,2.8-1.05,1.05-.35,1.05-2.1,3.15-1.4,.35-3.5,2.1-5.95,3.5-8.4,2.8-2.1,4.2-3.5,5.25-7.7-2.1,0-3.15-2.1-5.25-2.8-.35-.7-2.1,0-2.8,0Z"/><path d="M1448.83,91c-1.75,0-1.75,1.05-2.8,1.05s-1.4-1.05-2.45-1.05c-2.1,.35-3.85,1.75-5.95,1.75s-4.55-.35-6.65-.35c-1.4,0-3.85,0-3.85,1.4-.35,0-1.75-1.05-2.45-1.05-2.45,.35-5.25,1.4-8.05,1.4-.7,0-1.4,0-2.1-.35-2.45,.35-2.1,3.85-4.9,4.9v1.75c0,2.1-1.05,3.5-1.05,5.95,0,.35,.35,1.05,.35,1.4-3.85,3.85-5.25,10.5-10.85,13.3v1.4c0,3.15-1.75,4.2-1.75,7v1.4h-.7c-1.75,0-.7,2.1-2.1,2.1,0,0-.35,0-.7-.35-1.4,4.55-2.1,9.8-5.6,12.25v1.05c0,2.8-1.75,3.85-1.75,6.3,0,.35,0,.7,.35,1.4-7.35,0-10.5,26.25-10.85,25.2,0,.7,0,1.4,.7,2.1-2.45,.35-2.45,3.5-3.5,4.9,0,1.75,.35,3.85,.35,5.6,0,4.9-1.4,10.85-3.5,15.05-1.05,1.4-2.8,1.05-2.8,3.15s.7,3.5,.7,4.9c0,.7,0,1.4-.7,2.1,.7,1.4,2.8,2.45,2.8,2.8,0,.7-.35,1.75-.35,2.1,0,.7,1.05,1.4,1.05,2.1s-1.05,1.4-1.05,2.8c0,.35,.35,2.8,1.05,2.8-.7,1.4-1.75,1.05-1.75,3.85,0-.7-.35,7.35,4.2,7.35,2.45,0,4.9-3.15,8.05-3.15h1.05c2.8-.7,2.8-5.6,4.2-5.6,.7,0,1.4,.7,1.75,.7,1.75-5.25,14-8.05,14-10.85,1.4-4.2,15.75-10.85,15.05-10.85,1.75-.7,5.25-4.55,7.35-6.65,9.8-6.65,16.1-8.4,16.1-12.25,0-3.5,20.3-15.75,22.75-17.5h1.05c.35,0,.35-1.4,.35-2.1,0-.35,14-11.55,14.7-12.25,4.55-7.35,6.3-7,11.9-13.65,0,0,7.7-6.65,7.7-7.35,.35,0,1.4,.35,2.1,.7,1.4,0,2.45-6.3,3.85-7,2.8-2.45,12.6-11.2,13.65-11.2,2.45,0,5.95,4.9,8.05,4.9-.7,.7-1.05,4.9-2.1,5.25-3.85,5.95,.35,2.1-13.65,12.6,0,.7-1.05,1.4-1.4,2.1,0,0,.35,0,.35,.35,0,3.85-16.8,9.8-16.45,16.1h-1.75c-7.35,0-8.05,11.9-10.85,11.55-.7,0-11.9,10.15-12.6,10.15h-.7c-.7,0-1.75,1.05-1.75,2.8,0,.35,.35,.35,.35,1.4s-1.4,1.05-2.45,1.05h-1.4c-3.85,0-14.35,13.65-14.35,12.6-2.1,4.9-5.95,8.75-9.1,8.75h-.7c-4.9,0-10.15,6.3-12.6,8.75-3.5,2.45-2.1,3.5-4.2,3.5-4.9,0-9.8,7-9.8,7.7,0,1.4,.35,2.1,1.4,2.1-.7,1.75-2.45,1.4-2.45,3.15v1.05c-2.8,2.8-8.4,3.85-12.6,7.35-2.8,3.85-3.5,6.65-14,10.15-1.05,0-1.75-.35-3.15-.35-.7,0-2.8,.35-2.8,1.05-1.4,0-2.1-1.4-3.15-1.4-1.75,0-2.45,2.45-3.15,2.45-2.45,0-4.55,.35-6.65,.35-4.2,0-8.75-3.5-10.15-8.05v-1.05c0-.7-2.8-1.75-2.8-4.2,0-1.05,.35-2.1,.35-3.15,0-.7-1.05-1.75-1.05-3.5,0-.7,1.4-3.85,1.4-4.9s-.35-2.45-.35-4.55c0-7.35,1.4-24.85,5.6-28.7v-1.05c0-16.8,3.5-11.2,3.5-17.15,0-3.85,1.75-4.2,4.2-11.55,.7-1.4,1.75-.7,1.75-2.1,0-.7-.35-1.4-.35-2.1,0-1.4,1.75-1.75,1.75-2.8v-1.05c.35-.7,1.05-2.8,1.05-5.6v-1.4c2.1,0,5.95-17.15,6.65-18.2,6.65-15.05,13.3-23.45,13.3-28.35v-.7c2.8-1.75,4.2-5.25,4.9-9.8-.35-.7-1.75-1.05-3.15-1.05-1.05,0-2.1,.35-3.15,.35-.7,0-1.4,0-1.75-.35-1.75,.35-1.4,2.8-3.15,2.8h-.7v.7c0,2.1-6.65,9.8-10.15,9.8-1.05,0-2.1-.35-2.8-1.4-1.05,1.75-2.45,4.2-2.45,6.3,0,1.05,1.4,2.45,1.4,3.15,0,10.85-14.7,13.65-12.25,13.65v1.05c0,2.45-1.75,0-1.75,4.9h-.7c-1.75,0-1.75,3.15-2.1,3.15v-.35c-1.4,0-4.2,5.6-7,6.3v1.4c0,6.65-12.95,16.8-12.95,17.15,0,5.95-3.85,7-5.25,7.35-.35,4.55-4.2,5.6-7,8.05,.35,.7,.7,1.05,.7,1.4,0,2.1-2.1,9.45-8.75,9.45-.7,1.05-2.1,1.4-2.1,3.15,0,.35,.35,.7,.35,1.05-1.05,.35-4.2,2.45-4.2,3.85v.7c0,1.05-2.1,1.05-2.1,3.15,0,.35,.35,1.05,.35,1.4-2.1,0-1.05,2.45-2.45,2.45h-.7c-.35,1.75-1.05,2.8-1.05,4.9v1.05c-2.1,1.05-7.35,7.7-7.35,7.7,0,1.05,1.05,1.75,1.05,2.45,0,4.55-7,4.2-7,9.1,0,.35,0,1.05,.35,1.4-4.2,.7-7.7,10.15-14.7,10.15-1.75,0,0-2.8-4.55-2.8-4.2,0-5.6,3.5-9.1,3.5-3.15,0-6.3-3.5-7.35-3.5v-.35c0-1.05-.7-1.4-1.05-2.1v-1.05c0-2.45-1.4-4.9-1.4-4.9,0-.35,1.4-8.4,1.4-11.9v-1.4c0-.7,1.05-1.4,1.05-1.4,0-.35-1.05-.7-1.05-1.4,0-.35,1.05-.35,1.05-1.05v-1.4c0-.7,0-1.05,.7-1.05-.7-.7-1.05-2.1-1.05-3.15,0-2.45,1.4-5.25,2.45-5.95v-1.05c0-5.6,3.5-14,3.85-14h.7c.7-4.55,2.1-8.4,3.15-12.6,0-.35-.35-1.05-.35-1.4,0-1.05,3.15-3.5,2.8-3.5-.35-.35-.7-1.05-.7-1.75,0-2.8,2.45-2.8,2.45-4.55v-1.4c0-2.45,1.75-3.85,2.45-5.6,0-.7-.35-1.4-.35-2.1,0-.35,.35-1.05,.35-1.4,.35,.35,.7,.35,.7,.35,2.45,0,3.5-9.45,5.95-11.55-.35-.7-.35-1.05-.35-1.75,0,.35,3.15-11.9,7-14.35v-1.4c0-3.15,1.75-7,4.9-13.3,.35-.7,2.1-1.4,2.1-2.8,0-.35-.35-.7-.35-1.4,1.4-1.05,2.8-2.8,3.15-4.9-.7-1.4-2.1-2.1-3.85-2.1-1.4,0-3.15,1.05-4.2,1.05,0,0-.7-.7-1.05-.7-1.4,0-3.15,.35-5.25,.35-2.8,0-4.55-.7-7.35-1.4,0,0-.7,1.05-1.05,1.05s-3.15-1.05-3.5-1.05c-1.4,0-2.45,1.4-3.15,1.4,0,0-.35-.35-.35-1.05-5.95-.7-13.3,.7-19.95-1.75-.35,0-2.45,.35-3.85,.35-2.8,0-.7-2.1-3.85-2.1-1.4,0-1.75,.7-2.45,.7s-1.75-.7-3.15-.7c-2.45,.35-4.2,1.05-5.95,1.75-6.3-1.75-9.8-4.55-9.8-11.2,0-7,4.55-4.9,7.35-7.7,2.45,0,4.55,2.45,5.95,2.45,.7,0,2.45-.35,3.15-.35,1.05,0,2.8,1.75,4.9,1.75,2.8,0,6.65-.7,9.8-.7,1.75,.35,3.15,1.75,4.9,1.75h3.85c1.75,0,3.15,.35,3.85,1.75,1.4-.7,2.1-1.75,3.5-1.75-.35,0,3.15,1.05,6.65,1.75,2.45,.7,1.4,.7,2.45,1.4,1.4-.35,2.45-.35,3.85-.35,2.45,0,4.55,.35,6.65,.35,1.75,0,3.5-.35,5.25-1.75,2.8,0,3.15,2.45,4.9,2.8,3.85-1.4,10.85-.35,10.85-5.25,.7-.35,3.5-2.45,3.5-2.8,0-.7-.35-1.4-.35-2.1,0-.35,.35-4.9,4.55-9.1,0-.35-.35-1.05-.35-1.75,0-.35,.35-.7,.7-.7,1.75,0,1.05-2.1,2.8-2.1v-.35c0-2.1,2.45-3.5,3.5-5.95,0-.35-.35-.7-.35-1.05s1.75-2.1,2.8-4.9c4.2-11.9,6.65-9.45,6.65-15.05v-.7c5.95-4.9,4.2-8.75,7.35-15.05h.35c1.05,0,.7-2.8,.7-6.3-.35-1.75-1.05-2.8-1.05-4.55,1.4-4.9,8.4-9.8,9.1-10.5,.7-.35,2.45,.35,2.45-.35v-.35h.35c.7,0,.7,.35,.7,.7h.7c1.05,0,1.4,1.05,2.1,1.05s1.05-.35,1.05-.35v.7l.35,.35c.7,0,1.05-.35,1.4-.35q0,1.05,.35,1.05h1.4s-.35,.35-.35,.7,3.5-.35,2.1,1.05h1.05c.35,0,1.05,.7,3.15,3.15h1.05c3.15,0,4.55,3.15,4.55,4.9,0,2.8-.7,5.6-1.4,8.4-.35,.35-1.05,0-1.05,.7v2.1c0,1.4-1.75,.7-2.45,5.6-.7,.7-1.4,1.05-1.75,1.05h-1.4c-1.75,0-2.8,3.5-2.8,4.9,0,.35,0,.7,.35,1.4-2.1,.7-7,7.7-7.7,8.4-.7,1.4-2.45,2.8-3.85,2.8-1.75,0-2.8-1.05-4.2-1.05-1.75,1.05-2.1,2.8-2.1,5.25,0,2.1,.35,4.2,.35,5.95,0,2.45-5.6,2.45-5.6,3.15,0,.35,.35,.7,.35,1.05,0,.7-3.85,3.5-3.85,6.3v.7h-1.05c-4.55,0-7.35,9.45-7.35,14.7,0,2.8,1.4,3.15,3.5,3.15,1.75,0,4.2-.7,6.65-.7,1.75,0,3.85,1.05,5.6,1.05,3.15-.35,4.55-1.75,7-1.75,2.1,0,2.45,1.75,4.2,1.75s2.1-1.75,3.85-1.75c1.05,0,1.05,.7,2.45,.7s1.4-.7,2.45-.7c1.75,0,3.5,.35,5.25,.35,1.4,0,2.8-.35,3.85-1.75,1.05,.35,1.75,.7,2.8,.7,2.45,0,5.25-1.05,7.35-1.75,2.1,.35,4.2,.35,5.6,1.4,8.4-.7,10.85-9.8,15.75-12.25,1.75-6.3,9.8-12.95,12.6-12.95,1.4-3.15,1.05-8.75,5.95-8.75v-1.05c0-2.1,9.8-12.95,12.25-13.65,0-3.15,4.9-8.4,4.9-8.4,0-.35-.35-.7-.35-1.05,0-5.95,7-6.3,7.7-8.05l4.55,1.75v.35q0,.35,.35,.35c4.9,.7,7.7,9.45,12.6,10.85,0,.35-.35,.7-.35,1.05,0,1.4,1.4,3.15,1.4,3.85-.35,3.15-6.3,10.15-6.3,11.9v1.4c0,7-10.5,7.35-10.5,14v.7c-4.2,2.1-7,3.5-8.05,10.15-.35,.7-2.1,1.05-2.1,2.1,0,.7,1.75,3.15,5.25,3.15,1.05,0,2.45-.7,2.8-.7s2.1,.7,4.55,.7c3.15,0,7.7-.7,9.8-.7s4.2,.35,6.3,.35c1.4,0,5.25-.35,7-.35,1.4,0,1.75-1.05,3.15-1.05,.7,0,1.4,1.05,2.45,1.05,0,0,.7,.35,1.4,.35,1.05,0,0-.7,2.45-.7,1.4,.35,2.45,.7,3.15,.7,2.45,0,5.25-1.4,8.05-1.4h2.8c1.4-.35,1.75-.7,2.45-.7,1.75,0,3.15,.7,4.9,.7,2.45,0,6.3-2.1,9.1-2.1,1.75,0,3.5,1.05,4.2,3.5,0,2.8-10.5,5.95-9.1,5.95h-5.95c-4.55,0-5.6,2.1-10.5,2.1,0,.35-1.75-.35-2.45-.35-3.15,0-9.1,2.8-17.15,2.8-2.45,0-1.4-1.05-2.45-1.05-.35,0-.35,1.05-.7,1.05h-1.4c-.35,0-3.15,.35-3.15,.7-1.4,0-4.55-.35-4.9-.35Zm-88.9,8.75h-6.65c-.35-.35-1.05-.7-1.05-1.05-.35,0-4.9,1.75-7,1.75-2.45,0-4.9-.35-7-.35s-2.8,.35-3.5,.35c-.35,0-.7-.7-2.1-.7-4.55,0-7,1.75-7.7,1.75-1.05,0-2.1-.35-3.15-.35-1.4,.35-2.45,.35-3.15,.35-1.75,0-3.15-.7-4.55-.7-2.8,0-5.25,1.05-7.35,1.05-.7,0-1.4,0-1.75-.7-1.05,2.45-3.15,4.2-3.15,7.7v1.4c-2.45,.7-2.8,3.5-4.9,4.2v1.05c0,2.45-1.05,3.85-1.05,6.65v.7c-2.45,.35-3.85,6.3-3.85,6.3,0,.35,.35,.7,.35,.7,0,3.85-4.9,9.45-4.2,8.75,0,.7,1.05,1.05,1.05,1.4-1.4,2.8-4.2,3.85-4.2,8.05v2.1c-2.1,0-4.2,9.8-4.2,8.4-1.75,.35-2.45,1.75-3.85,2.45,.35,.35,.35,.7,.35,1.05,0,2.1-2.1,2.45-2.1,3.85,0,1.05,.35,1.4,.7,3.15-3.85,1.05-4.9,10.5-5.95,15.05v2.1c0,3.15-2.1,4.2-2.1,9.1,0,1.05,0,2.1,.35,3.15-2.1,.7-1.05,5.95-2.1,8.05,.7,0,.7,.35,.7,1.05v1.4c0,2.1,1.4,3.15,1.4,4.55,0,1.05-1.4,1.75-1.4,2.45,0,.35,.35,1.05,.7,1.4,.7-.35,1.75-.35,1.75-1.05v-.7h.35c1.05,0,1.4,1.05,2.8,1.05,2.8-5.6,10.85-16.1,16.8-18.2,0-.7,3.5-12.6,11.55-12.6h1.05c.7-8.4,11.55-11.2,11.55-16.8,9.1-5.25,17.85-21.35,18.2-20.3,0-1.75,1.75-1.4,1.75-3.5v-1.05c1.05-2.1,3.15-.7,3.15-2.1v-1.05s3.85-5.95,4.2-5.95h1.75c0-.35-.35-.7-.35-1.05,0-2.1,4.55-2.1,4.55-4.55,0-.7,0-1.05-.35-1.75,1.05-.35,1.4-.35,1.75-.35h1.05c.35,0,.7,0,1.75-.7-.35-.7-.35-1.4-.35-1.75,0-4.2,5.6-10.85,8.4-12.25v-.7c0-1.75,1.05-2.45,1.05-4.2h.35c1.75,0,2.8-2.45,2.8-2.8,.35,0,.7,.35,1.05,.35,1.4,0,4.9-6.65,4.9-6.3,0,0-1.75-1.75-2.8-2.1-1.4,1.4-3.85,1.75-6.3,2.8Zm44.8-22.75c-2.8,.35-3.85,2.8-4.9,4.2,3.5,0,2.8-2.45,4.9-4.2Zm57.75,96.95q.35,0,0,.35v-.35Z"/><path d="M1512.52,123.55c.35-.35,.7-.35,1.05-.35v-.7l-.35-.35c.35-.35,.7-.35,2.1-.35,1.4-1.75,0-11.9,2.45-13.3,0,0,1.05-.35,1.4-.7,.7-.35,2.1-3.5,3.5-3.5,2.1,0,2.1,.35,3.5,.35,.35,0,1.75-1.75,1.75-1.75,.7,0,2.1,1.4,3.5,1.4,2.8,0,4.2-3.15,6.65-3.15,2.1,.35,3.5,3.15,6.3,3.15h1.05v.35c0,3.5,3.5,3.15,3.5,7h.7c12.95,0,15.4,6.3,22.75,6.3,5.25,0,7.7,8.4,12.95,8.4,1.05,0,1.4,0,2.45-.35,.7,1.4,3.15,4.55,4.55,4.55,7,0,6.65-4.55,10.15,.35,0,1.75,3.85,1.75,2.1,2.8-1.4,.35,7.7,8.05,8.05,7.35-.35,.35-.35,.7-.35,.7,0,.35,.35,2.1,.35,2.8,0,1.05-3.15,.7-3.15,3.5,0,2.45,2.8,11.2-1.4,14.7,.7,5.95-4.55,4.2-3.5,9.1h-.7c-1.05,0-1.4,3.85-3.15,3.85s-3.15,3.15-3.15,1.05c-1.75,2.1-7.35,7-5.6,7-1.75,1.75-5.6-1.05-5.6,5.95-2.1,.35-8.75,10.85-8.75,9.1-1.05,1.05-2.8,.35-2.8,2.1-5.95,2.45-12.25,10.5-12.25,14.35,0,.35,.7,0,.7,.7,0,2.1-3.85,3.85-5.6,3.85,0,0-.7,0-1.05-.35-3.15,1.75,1.05,5.95-6.65,5.95-1.75,.35-3.15,4.9-3.5,4.9-5.6,0-8.4,4.9-13.3,4.9-3.15,0-5.25-.7-8.4-1.05-3.5,0-4.55,2.45-6.65,2.8-2.8,0-4.9-2.8-5.6-2.8-6.3-3.15-5.95-.35-13.3-7.7v-1.4c0-.7,0-1.05-.35-1.05h-.7v-2.1h-.7v-2.45s-.7,.35-1.05,.35-.35-.35-.35-.7v-1.4c0-.7-.7-1.05-.7-1.05,0-.7,.7-1.05,.7-2.1-4.55-4.55-.35-9.45-4.55-12.95,1.05-2.8,.7-7.7,3.15-9.45-1.05-2.1-2.1-3.85-2.1-5.25,0,0,1.05-.7,1.05-1.4,0-1.4-.35-1.4-1.05-1.75,.7-.7,5.6-11.2,5.6-11.2,0-1.05-.7-1.75-.7-2.45,0-1.75,8.4-11.2,8.4-11.55v-2.45c0-2.45,2.1-2.8,4.55-11.55,0-2.45,2.1-3.15,2.1-5.6,0-1.4-5.25-8.05-1.05-8.05,0-.35-.7-6.3,1.05-7.35Zm59.85,9.8h-6.65c-4.9,0-7-.7-8.05-.7-1.4,0-1.4,1.05-2.1,1.05s-1.75-.35-2.1-.35c-1.05,.7-2.45,.7-3.85,.7-1.75-1.75-3.5-2.45-5.25-2.45-2.1,0-7.35,12.6-7.7,12.6-.35,.35-1.75,1.4-1.4,1.75-3.15,1.05-1.4,3.15-4.55,4.55,0,2.8-1.4,4.2-1.4,5.25,0,0-7.7,18.9-14,24.5,0,2.1,.35,3.5,1.05,4.9-2.8,.7-4.9,7.35-4.9,6.65,0,2.45,.35,3.15,.35,4.9,0,3.15-1.4,2.1-1.4,5.25,0-.7,2.8,21.7,8.05,21.7,3.15,0,4.9-2.8,5.25-2.8,1.05,0,.7,.35,1.75,.35,5.25,0,3.5-3.15,7.7-3.15,.7,0,1.75,1.4,4.2,1.4v-1.75c0-6.3,8.75-6.3,10.5-7.7,8.4-5.95,9.8-14.35,22.05-20.3,1.4-1.75,1.75-3.5,1.75-5.6v-1.05c6.65-3.5,9.45-12.6,14.35-18.55-1.4-1.05,1.05-4.9,1.05-8.05,0-4.2-2.1-7.7-1.05-10.5-1.4-1.4-1.05-4.2-2.8-6.65-9.45-8.05-11.2-5.95-10.85-5.95Z"/></svg>